<svg width="20" height="20" viewBox="0 0 20 20" fill="none" xmlns="http://www.w3.org/2000/svg">
<path d="M16.3659 0.237305H4.23405C1.80769 0.237305 0.589111 1.44509 0.589111 3.87145V16.0033C0.589111 18.4296 1.80769 19.6482 4.23405 19.6482H16.3659C18.7922 19.6482 20 18.4296 20 16.0033V3.87145C20 1.44509 18.7922 0.237305 16.3659 0.237305ZM14.6405 8.00167L9.60437 13.0269C9.4534 13.1887 9.24854 13.2642 9.03287 13.2642C8.82797 13.2642 8.62305 13.1887 8.46129 13.0269L5.94864 10.5143C5.63591 10.2016 5.63591 9.68391 5.94864 9.37117C6.26137 9.05844 6.77906 9.05844 7.09179 9.37117L9.03287 11.3123L13.4973 6.85859C13.8101 6.53508 14.3277 6.53508 14.6405 6.85859C14.9532 7.17132 14.9532 7.67816 14.6405 8.00167Z" fill="#F04248"/>
</svg>
