<svg width="19" height="19" viewBox="0 0 19 19" fill="none" xmlns="http://www.w3.org/2000/svg">
<path d="M18.4675 7.87598H1.06763C0.901627 7.87598 0.767578 8.00996 0.767578 8.17596V15.126C0.767578 17.126 1.76758 18.126 3.76758 18.126H15.7676C17.7676 18.126 18.7676 17.126 18.7676 15.126V8.17596C18.7676 8.00996 18.6335 7.87598 18.4675 7.87598ZM7.76758 14.876H4.76758C4.35358 14.876 4.01758 14.54 4.01758 14.126C4.01758 13.712 4.35358 13.376 4.76758 13.376H7.76758C8.18158 13.376 8.51758 13.712 8.51758 14.126C8.51758 14.54 8.18158 14.876 7.76758 14.876ZM10.5176 6.07599V0.425964C10.5176 0.259964 10.6516 0.125977 10.8176 0.125977H14.5076C16.7676 0.125977 17.0176 1.01597 17.3876 2.30597L18.4415 5.99399C18.4965 6.18599 18.3526 6.37598 18.1536 6.37598H10.8176C10.6516 6.37598 10.5176 6.24199 10.5176 6.07599ZM1.09363 5.99399L2.14758 2.30597C2.51758 1.01597 2.76759 0.125977 5.02759 0.125977H8.71753C8.88353 0.125977 9.01758 0.259964 9.01758 0.425964V6.07599C9.01758 6.24199 8.88353 6.37598 8.71753 6.37598H1.38159C1.18259 6.37598 1.03863 6.18499 1.09363 5.99399Z" fill="white"/>
</svg>
