<svg width="24" height="25" viewBox="0 0 24 25" fill="none" xmlns="http://www.w3.org/2000/svg">
<path opacity="0.4" d="M14.8688 14.9202L13.7538 16.5852C10.9538 15.4152 8.71388 13.1662 7.54288 10.3592L9.20401 9.2542C10.112 8.6502 10.3889 7.44122 9.83291 6.50222L8.26993 3.86321C7.94493 3.31421 7.30901 3.03121 6.68301 3.15621L6.66592 3.1592C4.10592 3.6712 2.46782 6.24422 3.15982 8.76122C4.79582 14.7132 9.43493 19.3382 15.3739 20.9682C17.8909 21.6592 20.4598 20.0192 20.9718 17.4602C21.0968 16.8362 20.8149 16.2022 20.2689 15.8762L17.6259 14.3002C16.6869 13.7412 15.4768 14.0132 14.8688 14.9202Z" fill="#1E1E1E"/>
<path d="M17 10.876C16.586 10.876 16.25 10.54 16.25 10.126C16.25 8.88498 15.24 7.87598 14 7.87598C13.586 7.87598 13.25 7.53998 13.25 7.12598C13.25 6.71198 13.586 6.37598 14 6.37598C16.067 6.37598 17.75 8.05798 17.75 10.126C17.75 10.54 17.414 10.876 17 10.876ZM20.75 10.126C20.75 6.40398 17.722 3.37598 14 3.37598C13.586 3.37598 13.25 3.71198 13.25 4.12598C13.25 4.53998 13.586 4.87598 14 4.87598C16.895 4.87598 19.25 7.23098 19.25 10.126C19.25 10.54 19.586 10.876 20 10.876C20.414 10.876 20.75 10.54 20.75 10.126Z" fill="#1E1E1E"/>
</svg>
